<?xml version="1.0" encoding="utf-8"?>
<!-- Generator: Adobe Illustrator 25.0.0, SVG Export Plug-In . SVG Version: 6.00 Build 0)  -->
<svg version="1.1" id="Layer_1" xmlns="http://www.w3.org/2000/svg" xmlns:xlink="http://www.w3.org/1999/xlink" x="0px" y="0px"
	 viewBox="0 0 24 24" style="enable-background:new 0 0 24 24;" xml:space="preserve">
<style type="text/css">
	.st0{fill:#FF6386;}
</style>
<path class="st0" d="M20.4,19.4l-4-1.4L15,22l-3.1-6L9,22l-1.4-4l-4,1.4l2.9-6C5.6,12.2,5,10.6,5,9c0-3.9,3.1-7,7-7s7,3.1,7,7
	c0,1.6-0.6,3.2-1.5,4.4L20.4,19.4 M7,9l2.7,1.3l-0.2,3l2.5-1.7l2.5,1.6l-0.2-3L17,9l-2.7-1.3l0.2-3L12,6.3L9.5,4.7l0.2,3L7,9z"/>
</svg>
